<?xml version="1.0" standalone="no"?>
<!DOCTYPE svg PUBLIC "-//W3C//DTD SVG 20010904//EN"
 "http://www.w3.org/TR/2001/REC-SVG-20010904/DTD/svg10.dtd">
<svg version="1.0" xmlns="http://www.w3.org/2000/svg"
 width="747.000000pt" height="747.000000pt" viewBox="0 0 747.000000 747.000000"
 preserveAspectRatio="xMidYMid meet">
<metadata>
Created by potrace 1.11, written by Peter Selinger 2001-2013
</metadata>
<g transform="translate(0.000000,747.000000) scale(0.100000,-0.100000)"
fill="#000000" stroke="none">
<path d="M0 3735 l0 -3735 3735 0 3735 0 0 3735 0 3735 -3735 0 -3735 0 0
-3735z m3740 3035 c54 -29 45 -160 -23 -305 -40 -86 -42 -94 -42 -185 0 -91 2
-99 42 -185 78 -168 79 -303 2 -465 -27 -57 -43 -107 -49 -153 -10 -85 -35
-117 -90 -117 -26 0 -43 7 -60 25 -21 22 -22 31 -18 107 5 72 12 97 54 188 44
96 48 111 48 180 0 67 -4 85 -41 165 -54 118 -63 153 -63 255 0 101 9 137 60
250 24 52 42 109 46 145 8 74 32 105 81 105 19 0 43 -4 53 -10z m-469 -329
c50 -50 36 -141 -40 -266 -38 -63 -42 -75 -39 -120 3 -37 14 -65 42 -106 46
-69 66 -134 66 -208 -1 -68 -16 -114 -65 -192 -21 -35 -40 -80 -44 -110 -10
-64 -36 -91 -87 -91 -29 0 -44 6 -61 27 -42 48 -26 141 45 260 57 93 57 138 3
221 -93 144 -95 270 -7 409 23 35 41 78 46 109 14 90 84 123 141 67z m932 17
c35 -18 46 -40 47 -88 0 -63 -13 -102 -61 -182 -54 -89 -61 -145 -25 -203 67
-108 79 -139 84 -217 5 -90 -8 -138 -63 -224 -22 -34 -40 -77 -44 -106 -10
-59 -36 -89 -79 -90 -106 -3 -121 134 -30 274 31 48 42 76 46 115 4 48 1 59
-38 122 -92 153 -93 260 -4 404 22 36 41 81 45 111 13 78 65 115 122 84z
m-1458 -1418 c4 -11 19 -27 35 -35 25 -13 45 -13 162 0 430 47 959 47 1393 0
399 -44 794 -139 995 -240 137 -69 221 -164 199 -224 -12 -31 -72 -95 -115
-121 l-31 -20 -83 36 c-535 225 -1504 312 -2385 213 -400 -45 -740 -123 -954
-220 -35 -16 -68 -29 -73 -29 -20 0 -99 63 -123 98 -50 73 -21 140 93 216 115
76 256 130 502 192 184 46 210 59 210 110 0 19 7 24 38 29 20 4 44 8 52 10 48
10 79 4 85 -15z m-860 -828 c275 -138 736 -233 1315 -272 69 -4 301 -7 515 -5
365 3 610 18 813 50 140 22 178 29 272 47 255 49 463 116 628 203 l102 54 0
-125 c0 -304 -73 -722 -182 -1039 -47 -138 -50 -171 -15 -201 l25 -21 -32 -74
-32 -74 -37 3 c-48 5 -72 -21 -155 -165 -249 -432 -651 -747 -1023 -802 -106
-16 -796 -17 -879 -2 -89 17 -186 46 -271 82 -77 33 -114 33 -144 -1 -21 -23
-24 -82 -5 -105 37 -44 233 -116 385 -140 140 -23 834 -22 957 1 260 48 524
187 736 389 l101 96 153 -26 c474 -82 849 -224 929 -352 27 -43 18 -72 -41
-127 -234 -219 -1081 -390 -2057 -415 -907 -23 -1743 64 -2268 235 -242 79
-415 190 -415 265 0 70 175 187 390 259 135 45 372 104 532 131 l138 24 67
-66 c113 -109 140 -129 176 -129 54 0 96 53 83 104 -3 12 -50 63 -105 114
-303 280 -517 650 -655 1128 -82 287 -146 710 -146 972 l0 64 33 -20 c17 -11
68 -38 112 -60z"/>
</g>
</svg>
